P2
4 4
4
0 1 2 3
1 2 3 4
2 3 4 3
3 4 3 2
